<?xml version="1.0" encoding="utf-8"?>
<!-- Generator: Adobe Illustrator 17.0.0, SVG Export Plug-In . SVG Version: 6.00 Build 0)  -->
<!DOCTYPE svg PUBLIC "-//W3C//DTD SVG 1.1//EN" "http://www.w3.org/Graphics/SVG/1.1/DTD/svg11.dtd">
<svg version="1.1" id="Capa_1" xmlns="http://www.w3.org/2000/svg" xmlns:xlink="http://www.w3.org/1999/xlink" x="0px" y="0px"
	 width="60px" height="81.814px" viewBox="0 0 60 81.814" enable-background="new 0 0 60 81.814" xml:space="preserve">
<g>
	<g>
		<path fill="#67b86a" d="M30,48.814c-0.864,0-1.565-0.701-1.565-1.565s0.7-1.565,1.565-1.565c8.648,0,15.684-7.036,15.684-15.684
			c0-0.864,0.7-1.565,1.565-1.565s1.565,0.701,1.565,1.565C48.814,40.374,40.374,48.814,30,48.814z"/>
	</g>
	<g>
		<path fill="#67b86a" d="M12.751,31.565c-0.864,0-1.565-0.701-1.565-1.565c0-10.374,8.44-18.815,18.814-18.815
			c0.864,0,1.565,0.7,1.565,1.565s-0.7,1.565-1.565,1.565c-8.648,0-15.684,7.036-15.684,15.685
			C14.316,30.864,13.615,31.565,12.751,31.565z"/>
	</g>
	<g>
		<g>
			<path fill="#67b86a" d="M28.02,36.033c-0.344,0-0.689-0.113-0.977-0.342l-4.971-3.971c-0.675-0.539-0.785-1.524-0.246-2.2
				c0.54-0.674,1.524-0.784,2.199-0.246l3.877,3.097l7.941-7.946c0.611-0.611,1.602-0.611,2.213-0.001
				c0.611,0.611,0.611,1.602,0.001,2.213l-8.931,8.936C28.823,35.878,28.422,36.033,28.02,36.033z"/>
		</g>
	</g>
</g>
<g>
	<g>
		<path d="M0,66.204c0-0.475,0.285-0.736,0.664-0.736c0.403,0,0.688,0.261,0.688,0.736v8.92l7.734-9.371
			c0.142-0.166,0.308-0.285,0.569-0.285c0.308,0,0.593,0.238,0.593,0.57c0,0.166-0.071,0.332-0.19,0.474l-4.484,5.385l5.077,8.826
			c0.095,0.166,0.143,0.308,0.143,0.427c0,0.38-0.238,0.665-0.617,0.665c-0.308,0-0.498-0.166-0.641-0.404l-4.863-8.422
			l-3.321,3.938v4.128c0,0.474-0.285,0.735-0.688,0.735C0.285,81.791,0,81.53,0,81.055V66.204z"/>
	</g>
	<g>
		<path d="M21.846,81.328l-3.345-6.88h-0.214h-4.175c-0.095,0-0.142,0.047-0.142,0.142v6.429c0,0.474-0.285,0.735-0.688,0.735
			c-0.38,0-0.664-0.261-0.664-0.735V66.169c0-0.404,0.261-0.641,0.664-0.641h5.005c3.013,0,4.887,1.684,4.887,4.46
			c0,2.254-1.257,3.796-3.321,4.294l3.227,6.5c0.047,0.119,0.071,0.214,0.071,0.332c0,0.333-0.238,0.641-0.664,0.641
			C22.226,81.755,22.012,81.613,21.846,81.328z M21.822,69.988c0-2.04-1.233-3.179-3.558-3.179h-4.152
			c-0.095,0-0.142,0.048-0.142,0.142v6.073c0,0.095,0.047,0.143,0.142,0.143h4.152C20.589,73.167,21.822,72.028,21.822,69.988z"/>
	</g>
	<g>
		<path d="M24.998,66.216c0-0.404,0.261-0.641,0.664-0.641h8.446c0.45,0,0.688,0.261,0.688,0.641c0,0.379-0.237,0.64-0.688,0.64
			h-7.615c-0.095,0-0.142,0.048-0.142,0.142v5.741c0,0.095,0.047,0.143,0.142,0.143h6.5c0.45,0,0.688,0.261,0.688,0.64
			c0,0.38-0.238,0.64-0.688,0.64h-6.5c-0.095,0-0.142,0.048-0.142,0.143v5.978c0,0.095,0.047,0.142,0.142,0.142h7.615
			c0.45,0,0.688,0.261,0.688,0.641c0,0.379-0.237,0.64-0.688,0.64h-8.446c-0.404,0-0.664-0.237-0.664-0.64V66.216z"/>
	</g>
	<g>
		<path d="M41.72,81.02V66.951c0-0.095-0.047-0.142-0.142-0.142h-4.27c-0.451,0-0.688-0.261-0.688-0.64
			c0-0.38,0.237-0.641,0.688-0.641h10.177c0.451,0,0.688,0.261,0.688,0.641c0,0.379-0.237,0.64-0.688,0.64h-4.27
			c-0.095,0-0.143,0.048-0.143,0.142V81.02c0,0.474-0.284,0.735-0.688,0.735C42.004,81.755,41.72,81.494,41.72,81.02z"/>
	</g>
	<g>
		<path d="M47.663,80.925l5.314-14.732c0.166-0.474,0.427-0.712,0.854-0.712s0.688,0.238,0.854,0.712l5.266,14.732
			C59.976,80.996,60,81.091,60,81.186c0,0.38-0.285,0.617-0.641,0.617c-0.332,0-0.545-0.166-0.664-0.475l-1.376-3.819h-7.022
			l-1.376,3.819c-0.118,0.309-0.332,0.475-0.664,0.475c-0.356,0-0.64-0.237-0.64-0.617C47.616,81.091,47.639,80.996,47.663,80.925z
			 M56.868,76.204l-3.013-8.446h-0.072l-3.037,8.446H56.868z"/>
	</g>
</g>
</svg>
