<?xml version="1.0" encoding="utf-8"?>
<svg version="1.1" id="projects" xmlns="http://www.w3.org/2000/svg" xmlns:xlink="http://www.w3.org/1999/xlink" x="0px" y="0px"
	 viewBox="-284.379 409.51 22.759 22.759" style="enable-background:new -284.379 409.51 22.759 22.759;" xml:space="preserve">
<g>
	<path d="M-269.021,416.51h-14.958c-0.221,0-0.4,0.18-0.4,0.4v14.959c0,0.221,0.179,0.4,0.4,0.4h14.959c0.221,0,0.4-0.18,0.4-0.4
		v-14.958C-268.621,416.69-268.8,416.51-269.021,416.51z M-269.42,431.469h-14.16v-14.158h14.16V431.469z"/>
	<path d="M-262.021,409.51h-14.958c-0.221,0-0.4,0.18-0.4,0.4v4.959c0,0.221,0.179,0.4,0.4,0.4s0.4-0.18,0.4-0.4v-4.558h14.159
		v14.158h-4.559c-0.221,0-0.4,0.18-0.4,0.4s0.179,0.4,0.4,0.4h4.959c0.221,0,0.4-0.18,0.4-0.4v-14.958
		C-261.621,409.69-261.8,409.51-262.021,409.51z"/>
</g>
<path d="M-271.782,421.106l-5.782,5.753l-3.691-2.849c-0.173-0.136-0.426-0.104-0.561,0.072c-0.135,0.175-0.103,0.426,0.072,0.561
	l3.969,3.063c0.008,0.006,0.018,0.004,0.025,0.009c0.066,0.045,0.141,0.075,0.219,0.075c0.055,0,0.109-0.014,0.161-0.037
	c0.018-0.008,0.031-0.021,0.048-0.031c0.024-0.016,0.052-0.027,0.073-0.049l6.031-6c0.156-0.155,0.157-0.409,0.001-0.565
	C-271.372,420.952-271.625,420.949-271.782,421.106z"/>
</svg>
