<svg xmlns="http://www.w3.org/2000/svg" x="0px" y="0px" width="90px" height="90px"
    viewBox="0 0 90 90" enable-background="new 0 0 90 90" xml:space="preserve">
    <path fill="#67B86A" d="M90.156,76.351C90.156,83.889,84.034,90,76.483,90h-62.81C6.122,90,0,83.889,0,76.351V13.649
        C0,6.111,6.122,0,13.673,0h62.81c7.551,0,13.673,6.111,13.673,13.649V76.351z"/>
    <g>
        <g>
            <path fill="#FFFFFF" d="M45.078,73.221c-1.299,0-2.351-1.051-2.351-2.347s1.052-2.347,2.351-2.347
                c12.995,0,23.567-10.554,23.567-23.526c0-1.296,1.052-2.347,2.351-2.347c1.299,0,2.351,1.051,2.351,2.347
                C73.348,60.561,60.666,73.221,45.078,73.221z"/>
        </g>
        <g>
            <path fill="#FFFFFF" d="M19.159,47.348c-1.299,0-2.351-1.051-2.351-2.347c0-15.561,12.682-28.222,28.27-28.222
                c1.299,0,2.351,1.051,2.351,2.347s-1.052,2.347-2.351,2.347c-12.995,0-23.567,10.554-23.567,23.527
                C21.511,46.297,20.458,47.348,19.159,47.348z"/>
        </g>
        <g>
            <g>
                <path fill="#FFFFFF" d="M42.102,54.05c-0.517,0-1.036-0.17-1.467-0.513l-7.469-5.957c-1.014-0.808-1.18-2.286-0.369-3.299
                    c0.811-1.012,2.29-1.177,3.304-0.368l5.826,4.646l11.932-11.919c0.919-0.917,2.407-0.916,3.326-0.001
                    c0.919,0.916,0.919,2.402,0.001,3.32L43.766,53.362C43.31,53.817,42.707,54.05,42.102,54.05z"/>
            </g>
        </g>
    </g>
</svg>
