<?xml version="1.0" encoding="utf-8"?>
<svg version="1.1" id="Capa_1" xmlns="http://www.w3.org/2000/svg" xmlns:xlink="http://www.w3.org/1999/xlink" x="0px" y="0px"
	 viewBox="-56 205.306 481.781 431.387" style="enable-background:new -56 205.306 481.781 431.387;" xml:space="preserve">
<g>
	<path d="M295.596,613.375H-32.682V228.624h328.277c6.438,0,11.658-5.221,11.658-11.66c0-6.438-5.223-11.658-11.658-11.658H-44.34
		c-6.439,0-11.66,5.221-11.66,11.658v408.069c0,6.438,5.221,11.66,11.66,11.66h339.936c6.438,0,11.658-5.223,11.658-11.66
		S302.033,613.375,295.596,613.375z"/>
	<path d="M422.365,405.583l-71.891-71.902c-4.555-4.555-11.932-4.555-16.486,0c-4.555,4.549-4.555,11.932,0,16.486l51.988,52
		h-217.87c-6.438,0-11.658,5.221-11.658,11.658c0,6.439,5.221,11.66,11.658,11.66h217.87l-51.988,51.986
		c-4.555,4.555-4.555,11.934,0,16.487c2.277,2.275,5.26,3.414,8.244,3.414c2.982,0,5.965-1.139,8.242-3.414l71.891-71.891
		C426.92,417.515,426.92,410.136,422.365,405.583z"/>
</g>
</svg>
