<svg xmlns:xlink="http://www.w3.org/1999/xlink" x="0px" y="0px" viewBox="-255 483.49 48 35.539" style="enable-background:new -255 483.49 48 35.539;" xml:space="preserve">
<g>
	<path d="M-207.985,483.49h-46.031c-0.544,0-0.985,0.441-0.985,0.985v33.57c0,0.544,0.441,0.985,0.985,0.985h46.031
		c0.544,0,0.985-0.441,0.985-0.985v-33.57C-207,483.931-207.441,483.49-207.985,483.49z M-208.969,485.459v23.163l-10.242-7.884
		c-0.331-0.255-0.787-0.273-1.138-0.045l-6.725,4.377l-13.268-9.1c-0.314-0.216-0.725-0.23-1.054-0.038l-11.635,6.807v-17.281
		C-253.031,485.459-208.969,485.459-208.969,485.459z M-253.031,517.059v-12.038l12.09-7.074l13.295,9.119
		c0.329,0.225,0.76,0.23,1.094,0.013l6.692-4.356l10.89,8.383v5.953H-253.031L-253.031,517.059z"/>
	<path d="M-227.36,498.752c2.566,0,4.654-2.088,4.654-4.654c0-2.566-2.088-4.653-4.654-4.653c-2.566,0-4.654,2.087-4.654,4.653
		C-232.014,496.664-229.926,498.752-227.36,498.752z M-227.36,491.414c1.48,0,2.685,1.204,2.685,2.684
		c0,1.48-1.204,2.685-2.685,2.685c-1.48,0-2.685-1.204-2.685-2.685C-230.045,492.618-228.84,491.414-227.36,491.414z"/>
</g>
</svg>
