Inbox<?xml version="1.0" encoding="utf-8"?>
<svg version="1.1" id="Layer_1" xmlns="http://www.w3.org/2000/svg" xmlns:xlink="http://www.w3.org/1999/xlink" x="0px" y="0px"
	 viewBox="-284.369 414.165 22.738 16.569" style="enable-background:new -284.369 414.165 22.738 16.569;" xml:space="preserve">
<g>
	<path d="M-269.287,422.791v0.628h-7.426v-0.628c0-0.788-0.641-1.428-1.428-1.428h-2.726l1.653-4.342h1.193
		c0.221,0,0.4-0.179,0.4-0.4s-0.18-0.4-0.4-0.4h-1.468c-0.166,0-0.314,0.103-0.374,0.257l-1.958,5.142
		c-0.047,0.123-0.03,0.261,0.045,0.37c0.074,0.108,0.197,0.173,0.329,0.173h3.307c0.346,0,0.627,0.282,0.627,0.628v1.028
		c0,0.221,0.18,0.4,0.4,0.4h8.227c0.221,0,0.4-0.179,0.4-0.4v-1.028c0-0.347,0.281-0.628,0.628-0.628h3.307
		c0.132,0,0.255-0.064,0.329-0.173c0.075-0.108,0.092-0.247,0.045-0.37l-1.958-5.142c-0.06-0.155-0.208-0.257-0.374-0.257h-1.511
		c-0.221,0-0.4,0.179-0.4,0.4s0.18,0.4,0.4,0.4h1.235l1.653,4.342h-2.727C-268.646,421.363-269.287,422.003-269.287,422.791z"/>
	<path d="M-273.297,414.983l7.495-0.018c0.261,0,0.49,0.159,0.584,0.406c0.005,0.013,0.011,0.025,0.017,0.038l2.727,7.159
		c0.029,0.079,0.043,0.152,0.043,0.225v6.513c0,0.347-0.281,0.628-0.628,0.628h-19.881c-0.347,0-0.628-0.282-0.628-0.628v-6.513
		c0-0.073,0.014-0.146,0.043-0.225c0.005-0.013,0.009-0.025,0.013-0.038l2.709-7.113c0.007-0.014,0.014-0.029,0.02-0.044
		c0.095-0.247,0.325-0.407,0.586-0.407L-273.297,414.983c0.221,0,0.338-0.176,0.338-0.397s-0.087-0.421-0.307-0.421l-6.932,0.001
		c-0.575,0-1.084,0.338-1.311,0.866c-0.01,0.017-0.018,0.035-0.025,0.054l-2.741,7.198c-0.006,0.016-0.011,0.032-0.015,0.048
		c-0.052,0.153-0.079,0.308-0.079,0.461v6.513c0,0.788,0.642,1.428,1.429,1.428h19.88c0.787,0,1.429-0.641,1.429-1.428v-6.513
		c0-0.168-0.031-0.337-0.095-0.511l-2.742-7.198c-0.006-0.015-0.013-0.03-0.021-0.044c-0.224-0.534-0.733-0.875-1.313-0.875h-7.464"
		/>
</g>
</svg>
