<?xml version="1.0" encoding="utf-8"?>
<svg version="1.1" xmlns="http://www.w3.org/2000/svg" xmlns:xlink="http://www.w3.org/1999/xlink" x="0px"
	 y="0px" viewBox="0 0 16 16" style="enable-background:new 0 0 16 16;" xml:space="preserve">
<g>
	<path d="M8,1c0.945,0,1.862,0.185,2.724,0.55c0.415,0.175,0.815,0.393,1.189,0.645c0.932,0.629,1.707,1.483,2.243,2.469
		c0.217,0.399,0.395,0.821,0.53,1.254c0.068,0.219,0.126,0.445,0.172,0.67C14.952,7.049,15,7.524,15,8c0,3.86-3.14,7-7,7
		s-7-3.14-7-7c0-0.476,0.048-0.951,0.142-1.412c0.046-0.225,0.104-0.451,0.172-0.67c0.135-0.433,0.313-0.855,0.53-1.254
		c0.536-0.986,1.311-1.84,2.243-2.469c0.374-0.253,0.774-0.47,1.189-0.645C6.138,1.185,7.055,1,8,1 M8,0
		C6.895,0,5.843,0.224,4.886,0.629c-0.479,0.202-0.933,0.45-1.359,0.738c-1.064,0.719-1.946,1.687-2.562,2.82
		C0.719,4.64,0.516,5.12,0.36,5.621c-0.078,0.25-0.144,0.506-0.197,0.767C0.056,6.909,0,7.448,0,8c0,4.418,3.582,8,8,8s8-3.582,8-8
		c0-0.552-0.056-1.091-0.163-1.612c-0.053-0.26-0.119-0.516-0.197-0.767c-0.156-0.501-0.36-0.981-0.606-1.434
		c-0.616-1.134-1.497-2.102-2.562-2.82c-0.426-0.288-0.88-0.535-1.359-0.738C10.157,0.224,9.105,0,8,0L8,0z"/>
</g>
</svg>
