<svg xmlns="http://www.w3.org/2000/svg" x="0px" y="0px" width="314px" height="90px" viewBox="0 0 314 90"
     enable-background="new 0 0 314 90" xml:space="preserve">
    <path fill="#67B86A" d="M90.156,76.351C90.156,83.889,84.034,90,76.483,90h-62.81C6.122,90,0,83.889,0,76.351V13.649
        C0,6.111,6.122,0,13.673,0h62.81c7.551,0,13.673,6.111,13.673,13.649V76.351z"/>
    <g>
        <path fill="#000000" d="M106.963,19.381c0-1.635,0.982-2.534,2.292-2.534c1.392,0,2.374,0.899,2.374,2.534v30.727l26.687-32.28
            c0.491-0.572,1.064-0.981,1.964-0.981c1.064,0,2.047,0.818,2.047,1.962c0,0.572-0.245,1.144-0.655,1.634l-15.472,18.55
            l17.518,30.401c0.328,0.572,0.492,1.062,0.492,1.47c0,1.308-0.82,2.289-2.129,2.289c-1.064,0-1.719-0.572-2.21-1.39
            L123.09,42.752l-11.461,13.567v14.219c0,1.634-0.982,2.533-2.374,2.533c-1.31,0-2.292-0.899-2.292-2.533V19.381z"/>
    </g>
    <g>
        <path fill="#000000" d="M182.347,71.478l-11.542-23.698h-0.737H155.66c-0.328,0-0.491,0.163-0.491,0.49v22.147
            c0,1.634-0.983,2.533-2.374,2.533c-1.31,0-2.292-0.899-2.292-2.533V19.258c0-1.39,0.899-2.207,2.292-2.207h17.272
            c10.397,0,16.864,5.802,16.864,15.363c0,7.764-4.339,13.075-11.46,14.791l11.134,22.392c0.163,0.409,0.245,0.736,0.245,1.144
            c0,1.145-0.82,2.207-2.292,2.207C183.657,72.949,182.92,72.459,182.347,71.478z M182.264,32.415
            c0-7.027-4.256-10.95-12.278-10.95H155.66c-0.328,0-0.491,0.164-0.491,0.49v20.921c0,0.327,0.163,0.491,0.491,0.491h14.326
            C178.008,43.366,182.264,39.443,182.264,32.415z"/>
    </g>
    <g>
        <path fill="#000000" d="M193.223,19.422c0-1.39,0.899-2.207,2.292-2.207h29.143c1.555,0,2.373,0.899,2.373,2.207
            c0,1.307-0.818,2.206-2.373,2.206h-26.278c-0.328,0-0.491,0.164-0.491,0.49v19.777c0,0.327,0.163,0.491,0.491,0.491h22.43
            c1.555,0,2.374,0.899,2.374,2.206c0,1.308-0.82,2.206-2.374,2.206h-22.43c-0.328,0-0.491,0.164-0.491,0.491v20.594
            c0,0.327,0.163,0.49,0.491,0.49h26.278c1.555,0,2.373,0.899,2.373,2.207c0,1.307-0.818,2.206-2.373,2.206h-29.143
            c-1.393,0-2.292-0.817-2.292-2.206V19.422z"/>
    </g>
    <g>
        <path fill="#000000" d="M250.922,70.416V21.954c0-0.326-0.163-0.49-0.491-0.49h-14.735c-1.556,0-2.374-0.899-2.374-2.206
            c0-1.308,0.818-2.207,2.374-2.207h35.118c1.556,0,2.374,0.899,2.374,2.207c0,1.307-0.818,2.206-2.374,2.206H256.08
            c-0.328,0-0.492,0.164-0.492,0.49v48.462c0,1.634-0.982,2.533-2.373,2.533C251.905,72.949,250.922,72.05,250.922,70.416z"/>
    </g>
    <g>
        <path fill="#000000" d="M271.431,70.088l18.337-50.748c0.573-1.634,1.474-2.452,2.947-2.452c1.474,0,2.374,0.818,2.947,2.452
            l18.173,50.748c0.082,0.245,0.164,0.572,0.164,0.899c0,1.308-0.983,2.125-2.211,2.125c-1.146,0-1.882-0.572-2.292-1.635
            l-4.747-13.156h-24.232l-4.748,13.156c-0.409,1.063-1.146,1.635-2.292,1.635c-1.228,0-2.21-0.817-2.21-2.125
            C271.268,70.66,271.349,70.333,271.431,70.088z M303.194,53.826l-10.396-29.093h-0.247l-10.478,29.093H303.194z"/>
    </g>
    <g>
        <g>
            <path fill="#FFFFFF" d="M45.078,73.221c-1.299,0-2.351-1.051-2.351-2.347s1.052-2.347,2.351-2.347
                c12.995,0,23.567-10.554,23.567-23.526c0-1.296,1.052-2.347,2.351-2.347c1.299,0,2.351,1.051,2.351,2.347
                C73.348,60.561,60.666,73.221,45.078,73.221z"/>
        </g>
        <g>
            <path fill="#FFFFFF" d="M19.159,47.348c-1.299,0-2.351-1.051-2.351-2.347c0-15.561,12.682-28.222,28.27-28.222
                c1.299,0,2.351,1.051,2.351,2.347s-1.052,2.347-2.351,2.347c-12.995,0-23.567,10.554-23.567,23.527
                C21.511,46.297,20.458,47.348,19.159,47.348z"/>
        </g>
        <g>
            <g>
                <path fill="#FFFFFF" d="M42.102,54.05c-0.517,0-1.036-0.17-1.467-0.513l-7.469-5.957c-1.014-0.808-1.18-2.286-0.369-3.299
                    c0.811-1.012,2.29-1.177,3.304-0.368l5.826,4.646l11.932-11.919c0.919-0.917,2.407-0.916,3.326-0.001
                    c0.919,0.916,0.919,2.402,0.001,3.32L43.766,53.362C43.31,53.817,42.707,54.05,42.102,54.05z"/>
            </g>
        </g>
    </g>
</svg>
